# xmcd
#
# Track frame offsets: 
#        150
#        2472
#        11681
#        20892
#        41681
#        62494
#        70081
#        77522
#        90049
#        102580
#        113527
#        124496
#        131841
#        139222
#        153108
#        166945
#        175034
#        183163
#        190587
#        198064
#        209217
#        220424
#        230027
#        239596
#        250077
#
# Disc length: 3472 seconds
#
# Revision: 0
# Processed by: cddbd v1.5.2PL0 Copyright (c) Steve Scherf et al.
# Submitted via: ExactAudioCopyFreeDBPlugin 1.0
#
DISCID=520d8e19
DTITLE=Jack Wilkins - Essential Jazz Etudes ... The Blues (Tenor Sax)
DYEAR=2003
DGENRE=Blues
TTITLE0=Tuning
TTITLE1=Blue Sax
TTITLE2=Blue Sax(ro)
TTITLE3=Bridge Over Muddy Waters
TTITLE4=Bridge Over Muddy Waters(ro)
TTITLE5=Big Blue Swing
TTITLE6=Big Blue Swing(ro)
TTITLE7=Slo' Mo' Blues
TTITLE8=Slo' Mo' Blues(ro)
TTITLE9=Too Sharp Blues
TTITLE10=Too Sharp Blues(ro)
TTITLE11=Bossa Blues
TTITLE12=Bossa Blues(ro)
TTITLE13=Big Beat Blues
TTITLE14=Big Beat Blues(ro)
TTITLE15=Blue Caboose
TTITLE16=Blue Caboose(ro)
TTITLE17=BeBoppin' Alice
TTITLE18=BeBoppin' Alice(ro)
TTITLE19=Boucing Blues
TTITLE20=Boucing Blues(ro)
TTITLE21=Ursa Minor Blues
TTITLE22=Ursa Minor Blues(ro)
TTITLE23=Blues News
TTITLE24=Blues News(ro)
EXTD=
EXTT0=
EXTT1=
EXTT2=
EXTT3=
EXTT4=
EXTT5=
EXTT6=
EXTT7=
EXTT8=
EXTT9=
EXTT10=
EXTT11=
EXTT12=
EXTT13=
EXTT14=
EXTT15=
EXTT16=
EXTT17=
EXTT18=
EXTT19=
EXTT20=
EXTT21=
EXTT22=
EXTT23=
EXTT24=
PLAYORDER=
